<mxfile host="app.diagrams.net" modified="2020-05-25T01:52:30.710Z" agent="5.0 (Macintosh; Intel Mac OS X 10_12_6) AppleWebKit/537.36 (KHTML, like Gecko) Chrome/81.0.4044.138 Safari/537.36" etag="JmipQIiy0JqOmCuq8GHC" version="13.0.8" type="github">
  <diagram name="Page-1" id="b520641d-4fe3-3701-9064-5fc419738815">
    <mxGraphModel dx="946" dy="597" grid="1" gridSize="10" guides="1" tooltips="1" connect="1" arrows="1" fold="1" page="1" pageScale="1" pageWidth="1100" pageHeight="850" background="#ffffff" math="0" shadow="0">
      <root>
        <mxCell id="0" />
        <mxCell id="1" parent="0" />
        <mxCell id="21ea969265ad0168-39" style="edgeStyle=orthogonalEdgeStyle;html=1;labelBackgroundColor=none;startFill=0;startSize=8;endFill=1;endSize=8;fontFamily=Verdana;fontSize=12;exitX=1;exitY=0.5;" parent="1" edge="1">
          <mxGeometry relative="1" as="geometry">
            <Array as="points" />
            <mxPoint x="250" y="106" as="sourcePoint" />
            <mxPoint x="370" y="106" as="targetPoint" />
          </mxGeometry>
        </mxCell>
        <mxCell id="Hgtj_GoyG-KB-VZRIQT7-11" value="make New appointment" style="text;html=1;strokeColor=none;fillColor=none;align=center;verticalAlign=middle;whiteSpace=wrap;rounded=0;" parent="1" vertex="1">
          <mxGeometry x="540" y="65" width="80" height="20" as="geometry" />
        </mxCell>
        <mxCell id="Hgtj_GoyG-KB-VZRIQT7-16" value="" style="ellipse;html=1;shape=endState;fillColor=#000000;strokeColor=#ff0000;" parent="1" vertex="1">
          <mxGeometry x="920" y="530" width="30" height="30" as="geometry" />
        </mxCell>
        <mxCell id="Hgtj_GoyG-KB-VZRIQT7-17" value="" style="ellipse;html=1;shape=startState;fillColor=#000000;strokeColor=#ff0000;" parent="1" vertex="1">
          <mxGeometry x="70" y="85" width="30" height="30" as="geometry" />
        </mxCell>
        <mxCell id="Hgtj_GoyG-KB-VZRIQT7-18" value="" style="edgeStyle=orthogonalEdgeStyle;html=1;verticalAlign=bottom;endArrow=open;endSize=8;strokeColor=#ff0000;" parent="1" source="Hgtj_GoyG-KB-VZRIQT7-17" edge="1">
          <mxGeometry relative="1" as="geometry">
            <mxPoint x="160" y="100" as="targetPoint" />
          </mxGeometry>
        </mxCell>
        <mxCell id="Hgtj_GoyG-KB-VZRIQT7-23" value="" style="endArrow=classic;html=1;entryX=-0.008;entryY=-0.029;entryDx=0;entryDy=0;entryPerimeter=0;exitX=1.013;exitY=0.386;exitDx=0;exitDy=0;exitPerimeter=0;" parent="1" source="Hgtj_GoyG-KB-VZRIQT7-5" target="sU12HxXbu1go9HaSJLEV-3" edge="1">
          <mxGeometry width="50" height="50" relative="1" as="geometry">
            <mxPoint x="810" y="99.5" as="sourcePoint" />
            <mxPoint x="865.5" y="99.5" as="targetPoint" />
          </mxGeometry>
        </mxCell>
        <mxCell id="Hgtj_GoyG-KB-VZRIQT7-26" value="go to appointments booking" style="text;html=1;strokeColor=none;fillColor=none;align=center;verticalAlign=middle;whiteSpace=wrap;rounded=0;" parent="1" vertex="1">
          <mxGeometry x="250" y="74" width="110" height="20" as="geometry" />
        </mxCell>
        <mxCell id="Hgtj_GoyG-KB-VZRIQT7-28" value="" style="endArrow=classic;html=1;" parent="1" edge="1">
          <mxGeometry width="50" height="50" relative="1" as="geometry">
            <mxPoint x="510" y="99.5" as="sourcePoint" />
            <mxPoint x="650" y="100" as="targetPoint" />
            <Array as="points">
              <mxPoint x="550" y="100" />
            </Array>
          </mxGeometry>
        </mxCell>
        <mxCell id="21ea969265ad0168-6" value="Dashboard" style="swimlane;html=1;fontStyle=0;childLayout=stackLayout;horizontal=1;startSize=26;fillColor=#e0e0e0;horizontalStack=0;resizeParent=1;resizeLast=0;collapsible=1;marginBottom=0;swimlaneFillColor=#ffffff;align=center;rounded=1;shadow=0;comic=0;labelBackgroundColor=none;strokeWidth=1;fontFamily=Verdana;fontSize=12" parent="1" vertex="1">
          <mxGeometry x="140" y="74" width="110" height="52" as="geometry" />
        </mxCell>
        <mxCell id="21ea969265ad0168-7" value="idle" style="text;html=1;strokeColor=none;fillColor=none;spacingLeft=4;spacingRight=4;whiteSpace=wrap;overflow=hidden;rotatable=0;points=[[0,0.5],[1,0.5]];portConstraint=eastwest;" parent="21ea969265ad0168-6" vertex="1">
          <mxGeometry y="26" width="110" height="26" as="geometry" />
        </mxCell>
        <mxCell id="Hgtj_GoyG-KB-VZRIQT7-1" value="My appointment page" style="swimlane;html=1;fontStyle=0;childLayout=stackLayout;horizontal=1;startSize=26;fillColor=#e0e0e0;horizontalStack=0;resizeParent=1;resizeLast=0;collapsible=1;marginBottom=0;swimlaneFillColor=#ffffff;align=center;rounded=1;shadow=0;comic=0;labelBackgroundColor=none;strokeWidth=1;fontFamily=Verdana;fontSize=12" parent="1" vertex="1">
          <mxGeometry x="370" y="74" width="150" height="60" as="geometry" />
        </mxCell>
        <mxCell id="Hgtj_GoyG-KB-VZRIQT7-2" value="display Appointments Bookings" style="text;html=1;strokeColor=none;fillColor=none;spacingLeft=4;spacingRight=4;whiteSpace=wrap;overflow=hidden;rotatable=0;points=[[0,0.5],[1,0.5]];portConstraint=eastwest;" parent="Hgtj_GoyG-KB-VZRIQT7-1" vertex="1">
          <mxGeometry y="26" width="150" height="34" as="geometry" />
        </mxCell>
        <mxCell id="sU12HxXbu1go9HaSJLEV-2" value="Appointment completition" style="swimlane;html=1;fontStyle=0;childLayout=stackLayout;horizontal=1;startSize=26;fillColor=#e0e0e0;horizontalStack=0;resizeParent=1;resizeLast=0;collapsible=1;marginBottom=0;swimlaneFillColor=#ffffff;align=center;rounded=1;shadow=0;comic=0;labelBackgroundColor=none;strokeWidth=1;fontFamily=Verdana;fontSize=12" parent="1" vertex="1">
          <mxGeometry x="870" y="74" width="170" height="80" as="geometry" />
        </mxCell>
        <mxCell id="sU12HxXbu1go9HaSJLEV-3" value="do:input data&lt;br&gt;exit:display changes" style="text;html=1;strokeColor=none;fillColor=none;spacingLeft=4;spacingRight=4;whiteSpace=wrap;overflow=hidden;rotatable=0;points=[[0,0.5],[1,0.5]];portConstraint=eastwest;" parent="sU12HxXbu1go9HaSJLEV-2" vertex="1">
          <mxGeometry y="26" width="170" height="54" as="geometry" />
        </mxCell>
        <mxCell id="sU12HxXbu1go9HaSJLEV-4" value="" style="endArrow=classic;html=1;" parent="1" edge="1">
          <mxGeometry width="50" height="50" relative="1" as="geometry">
            <mxPoint x="850" y="277.5" as="sourcePoint" />
            <mxPoint x="890" y="278" as="targetPoint" />
          </mxGeometry>
        </mxCell>
        <mxCell id="Hgtj_GoyG-KB-VZRIQT7-5" value="New Appointment form" style="swimlane;html=1;fontStyle=0;childLayout=stackLayout;horizontal=1;startSize=26;fillColor=#e0e0e0;horizontalStack=0;resizeParent=1;resizeLast=0;collapsible=1;marginBottom=0;swimlaneFillColor=#ffffff;align=center;rounded=1;shadow=0;comic=0;labelBackgroundColor=none;strokeWidth=1;fontFamily=Verdana;fontSize=12" parent="1" vertex="1">
          <mxGeometry x="650" y="74" width="150" height="70" as="geometry" />
        </mxCell>
        <mxCell id="Hgtj_GoyG-KB-VZRIQT7-6" value="display form for appointment" style="text;html=1;strokeColor=none;fillColor=none;spacingLeft=4;spacingRight=4;whiteSpace=wrap;overflow=hidden;rotatable=0;points=[[0,0.5],[1,0.5]];portConstraint=eastwest;" parent="Hgtj_GoyG-KB-VZRIQT7-5" vertex="1">
          <mxGeometry y="26" width="150" height="44" as="geometry" />
        </mxCell>
        <mxCell id="d0l99uiaqlxAbVS5GRuo-3" value="" style="endArrow=classic;html=1;" parent="1" edge="1">
          <mxGeometry width="50" height="50" relative="1" as="geometry">
            <mxPoint x="870" y="150" as="sourcePoint" />
            <mxPoint x="660" y="241.304347826087" as="targetPoint" />
          </mxGeometry>
        </mxCell>
        <mxCell id="d0l99uiaqlxAbVS5GRuo-5" value="show Coupons" style="text;html=1;strokeColor=none;fillColor=none;align=center;verticalAlign=middle;whiteSpace=wrap;rounded=0;" parent="1" vertex="1">
          <mxGeometry x="700" y="184" width="40" height="20" as="geometry" />
        </mxCell>
        <mxCell id="d0l99uiaqlxAbVS5GRuo-7" value="Coupon Options" style="swimlane;html=1;fontStyle=0;childLayout=stackLayout;horizontal=1;startSize=26;fillColor=#e0e0e0;horizontalStack=0;resizeParent=1;resizeLast=0;collapsible=1;marginBottom=0;swimlaneFillColor=#ffffff;align=center;rounded=1;shadow=0;comic=0;labelBackgroundColor=none;strokeWidth=1;fontFamily=Verdana;fontSize=12" parent="1" vertex="1">
          <mxGeometry x="495" y="240" width="170" height="76" as="geometry" />
        </mxCell>
        <mxCell id="d0l99uiaqlxAbVS5GRuo-8" value="display coupon options available" style="text;html=1;strokeColor=none;fillColor=none;spacingLeft=4;spacingRight=4;whiteSpace=wrap;overflow=hidden;rotatable=0;points=[[0,0.5],[1,0.5]];portConstraint=eastwest;" parent="d0l99uiaqlxAbVS5GRuo-7" vertex="1">
          <mxGeometry y="26" width="170" height="34" as="geometry" />
        </mxCell>
        <mxCell id="d0l99uiaqlxAbVS5GRuo-9" value="" style="endArrow=classic;html=1;" parent="1" edge="1">
          <mxGeometry width="50" height="50" relative="1" as="geometry">
            <mxPoint x="665" y="270" as="sourcePoint" />
            <mxPoint x="740" y="271" as="targetPoint" />
            <Array as="points">
              <mxPoint x="705" y="270.5" />
            </Array>
          </mxGeometry>
        </mxCell>
        <mxCell id="d0l99uiaqlxAbVS5GRuo-10" value="select coupon&amp;nbsp;" style="text;html=1;strokeColor=none;fillColor=none;align=center;verticalAlign=middle;whiteSpace=wrap;rounded=0;" parent="1" vertex="1">
          <mxGeometry x="680" y="280" width="40" height="20" as="geometry" />
        </mxCell>
        <mxCell id="d0l99uiaqlxAbVS5GRuo-13" value="Coupon added" style="swimlane;html=1;fontStyle=0;childLayout=stackLayout;horizontal=1;startSize=26;fillColor=#e0e0e0;horizontalStack=0;resizeParent=1;resizeLast=0;collapsible=1;marginBottom=0;swimlaneFillColor=#ffffff;align=center;rounded=1;shadow=0;comic=0;labelBackgroundColor=none;strokeWidth=1;fontFamily=Verdana;fontSize=12" parent="1" vertex="1">
          <mxGeometry x="740" y="240" width="110" height="76" as="geometry" />
        </mxCell>
        <mxCell id="d0l99uiaqlxAbVS5GRuo-14" value="do: choose one coupon to use" style="text;html=1;strokeColor=none;fillColor=none;spacingLeft=4;spacingRight=4;whiteSpace=wrap;overflow=hidden;rotatable=0;points=[[0,0.5],[1,0.5]];portConstraint=eastwest;" parent="d0l99uiaqlxAbVS5GRuo-13" vertex="1">
          <mxGeometry y="26" width="110" height="44" as="geometry" />
        </mxCell>
        <mxCell id="d0l99uiaqlxAbVS5GRuo-15" value="Appointment created" style="swimlane;html=1;fontStyle=0;childLayout=stackLayout;horizontal=1;startSize=26;fillColor=#e0e0e0;horizontalStack=0;resizeParent=1;resizeLast=0;collapsible=1;marginBottom=0;swimlaneFillColor=#ffffff;align=center;rounded=1;shadow=0;comic=0;labelBackgroundColor=none;strokeWidth=1;fontFamily=Verdana;fontSize=12" parent="1" vertex="1">
          <mxGeometry x="885" y="240" width="140" height="76" as="geometry" />
        </mxCell>
        <mxCell id="d0l99uiaqlxAbVS5GRuo-16" value="entry: read data&lt;br&gt;do : validate data&lt;br&gt;exit: create appointment" style="text;html=1;strokeColor=none;fillColor=none;spacingLeft=4;spacingRight=4;whiteSpace=wrap;overflow=hidden;rotatable=0;points=[[0,0.5],[1,0.5]];portConstraint=eastwest;" parent="d0l99uiaqlxAbVS5GRuo-15" vertex="1">
          <mxGeometry y="26" width="140" height="44" as="geometry" />
        </mxCell>
        <mxCell id="d0l99uiaqlxAbVS5GRuo-17" value="" style="endArrow=classic;html=1;" parent="1" edge="1">
          <mxGeometry width="50" height="50" relative="1" as="geometry">
            <mxPoint x="954.5" y="316" as="sourcePoint" />
            <mxPoint x="954.5" y="386" as="targetPoint" />
          </mxGeometry>
        </mxCell>
        <mxCell id="d0l99uiaqlxAbVS5GRuo-18" value="" style="edgeStyle=segmentEdgeStyle;endArrow=classic;html=1;entryX=1;entryY=0.25;entryDx=0;entryDy=0;" parent="1" target="sU12HxXbu1go9HaSJLEV-2" edge="1">
          <mxGeometry width="50" height="50" relative="1" as="geometry">
            <mxPoint x="1025" y="270" as="sourcePoint" />
            <mxPoint x="1070" y="90" as="targetPoint" />
            <Array as="points">
              <mxPoint x="1060" y="270" />
              <mxPoint x="1060" y="90" />
              <mxPoint x="1040" y="90" />
            </Array>
          </mxGeometry>
        </mxCell>
        <mxCell id="d0l99uiaqlxAbVS5GRuo-19" style="edgeStyle=orthogonalEdgeStyle;rounded=0;orthogonalLoop=1;jettySize=auto;html=1;exitX=0.5;exitY=1;exitDx=0;exitDy=0;entryX=0.5;entryY=0.5;entryDx=0;entryDy=0;entryPerimeter=0;" parent="1" source="d0l99uiaqlxAbVS5GRuo-10" target="d0l99uiaqlxAbVS5GRuo-10" edge="1">
          <mxGeometry relative="1" as="geometry" />
        </mxCell>
        <mxCell id="d0l99uiaqlxAbVS5GRuo-21" value="save" style="text;html=1;strokeColor=none;fillColor=none;align=center;verticalAlign=middle;whiteSpace=wrap;rounded=0;" parent="1" vertex="1">
          <mxGeometry x="850" y="250" width="40" height="20" as="geometry" />
        </mxCell>
        <mxCell id="d0l99uiaqlxAbVS5GRuo-24" value="[InvalidData]" style="text;html=1;strokeColor=none;fillColor=none;align=center;verticalAlign=middle;whiteSpace=wrap;rounded=0;" parent="1" vertex="1">
          <mxGeometry x="1000" y="170" width="40" height="20" as="geometry" />
        </mxCell>
        <mxCell id="d0l99uiaqlxAbVS5GRuo-25" value="My appointments tab updated" style="swimlane;html=1;fontStyle=0;childLayout=stackLayout;horizontal=1;startSize=26;fillColor=#e0e0e0;horizontalStack=0;resizeParent=1;resizeLast=0;collapsible=1;marginBottom=0;swimlaneFillColor=#ffffff;align=center;rounded=1;shadow=0;comic=0;labelBackgroundColor=none;strokeWidth=1;fontFamily=Verdana;fontSize=12" parent="1" vertex="1">
          <mxGeometry x="810" y="387" width="200" height="76" as="geometry" />
        </mxCell>
        <mxCell id="d0l99uiaqlxAbVS5GRuo-26" value="add new appointment in My appointments page" style="text;html=1;strokeColor=none;fillColor=none;spacingLeft=4;spacingRight=4;whiteSpace=wrap;overflow=hidden;rotatable=0;points=[[0,0.5],[1,0.5]];portConstraint=eastwest;" parent="d0l99uiaqlxAbVS5GRuo-25" vertex="1">
          <mxGeometry y="26" width="200" height="34" as="geometry" />
        </mxCell>
        <mxCell id="d0l99uiaqlxAbVS5GRuo-28" value="" style="endArrow=classic;html=1;" parent="1" edge="1">
          <mxGeometry width="50" height="50" relative="1" as="geometry">
            <mxPoint x="934.5" y="463" as="sourcePoint" />
            <mxPoint x="934.5" y="533" as="targetPoint" />
          </mxGeometry>
        </mxCell>
      </root>
    </mxGraphModel>
  </diagram>
</mxfile>
